<svg width="18" height="19" viewBox="0 0 18 19" fill="none" xmlns="http://www.w3.org/2000/svg">
<path fill-rule="evenodd" clip-rule="evenodd" d="M8.99988 2.00037C4.85747 2.00037 1.49988 5.35796 1.49988 9.50037C1.49988 13.6428 4.85747 17.0004 8.99988 17.0004C13.1423 17.0004 16.4999 13.6428 16.4999 9.50037C16.4999 5.35796 13.1423 2.00037 8.99988 2.00037ZM8.99988 3.12537C12.521 3.12537 15.3749 5.97928 15.3749 9.50037C15.3749 13.0215 12.521 15.8754 8.99988 15.8754C5.47879 15.8754 2.62488 13.0215 2.62488 9.50037C2.62488 5.97928 5.47879 3.12537 8.99988 3.12537ZM9.30344 6.30885C9.2662 6.03429 9.03085 5.82267 8.74608 5.82267C8.43542 5.82267 8.18358 6.07451 8.18358 6.38517V10.0204L8.18985 10.1042C8.21469 10.2693 8.31208 10.4165 8.4579 10.5035L11.2854 12.1902L11.3536 12.2249C11.6085 12.3336 11.9108 12.2399 12.0567 11.9953L12.0913 11.9272C12.2 11.6723 12.1063 11.37 11.8618 11.2241L9.30828 9.70025L9.30858 6.38517L9.30344 6.30885Z" fill="#11425E"/>
</svg>
