<svg width="25" height="24" viewBox="0 0 25 24" fill="none" xmlns="http://www.w3.org/2000/svg">
<path fill-rule="evenodd" clip-rule="evenodd" d="M20.5394 7.65929C21.2094 8.17829 21.6204 8.94929 21.6904 9.78829L21.7004 9.98929V18.0983C21.7004 20.1883 20.0494 21.8883 17.9804 21.9983H15.9904C15.0394 21.9793 14.2704 21.2393 14.2004 20.3093L14.1904 20.1683V17.3093C14.1904 16.9983 13.9594 16.7393 13.6504 16.6883L13.5604 16.6783H10.8894C10.5704 16.6883 10.3104 16.9183 10.2704 17.2183L10.2604 17.3093V20.1593C10.2604 20.2183 10.2494 20.2883 10.2404 20.3383L10.2304 20.3593L10.2194 20.4283C10.1004 21.2793 9.40039 21.9283 8.53039 21.9893L8.40039 21.9983H6.61039C4.52039 21.9983 2.81039 20.3593 2.70039 18.2983V9.98929C2.70939 9.13829 3.08039 8.34829 3.70039 7.79829L9.93039 2.78829C11.2004 1.77929 12.9804 1.73929 14.2894 2.66829L14.4504 2.78829L20.5394 7.65929ZM20.2994 18.2583L20.3104 18.0983V9.99829C20.2994 9.56929 20.1204 9.16829 19.8104 8.86929L19.6804 8.75829L13.5804 3.87829C12.8204 3.26829 11.7404 3.23929 10.9404 3.76829L10.7894 3.87829L4.70939 8.77929C4.36039 9.03829 4.15039 9.42829 4.10039 9.83829L4.08939 9.99829V18.0983C4.08939 19.4283 5.12939 20.5183 6.45039 20.5983H8.40039C8.62039 20.5983 8.81039 20.4493 8.83939 20.2393L8.86039 20.0593L8.87039 20.0083V17.3093C8.87039 16.2393 9.69039 15.3693 10.7404 15.2883H13.5604C14.6294 15.2883 15.4994 16.1093 15.5804 17.1593V20.1683C15.5804 20.3783 15.7304 20.5593 15.9304 20.5983H17.7894C19.1294 20.5983 20.2194 19.5693 20.2994 18.2583Z" fill="#11425E"/>
</svg>
