<svg width="25" height="24" viewBox="0 0 25 24" fill="none" xmlns="http://www.w3.org/2000/svg">
<path fill-rule="evenodd" clip-rule="evenodd" d="M12.8043 2C9.87026 2 7.49176 4.38864 7.49176 7.33517C7.49176 10.2817 9.87026 12.6703 12.8043 12.6703C15.7383 12.6703 18.1168 10.2817 18.1168 7.33517C18.1168 4.38864 15.7383 2 12.8043 2ZM12.8043 3.44767C14.9422 3.44767 16.6753 5.18816 16.6753 7.33517C16.6753 9.48218 14.9422 11.2227 12.8043 11.2227C10.6664 11.2227 8.93328 9.48218 8.93328 7.33517C8.93328 5.18816 10.6664 3.44767 12.8043 3.44767ZM10.63 14.8209C9.85232 14.8749 9.0662 14.9859 8.29079 15.1521C6.79416 15.4604 5.59684 16.0763 5.08723 17.0999C4.89502 17.5002 4.79838 17.9288 4.80001 18.3627C4.79943 18.7935 4.89529 19.2227 5.08061 19.6153C5.56993 20.6271 6.62779 21.1997 8.05623 21.5171L8.31211 21.5705C9.06647 21.7407 9.85283 21.8553 10.6445 21.909C10.7119 21.9288 10.8726 21.9472 11.0479 21.9561L11.1922 21.9615C11.2664 21.9633 11.3506 21.9637 11.476 21.9637C12.6138 22.0263 13.7934 22.0081 14.9675 21.9081C15.5932 21.8653 16.2231 21.7835 16.8477 21.6636L17.3151 21.5666C18.8576 21.2623 20.0126 20.6836 20.5186 19.6164C20.8937 18.8241 20.8937 17.9047 20.5188 17.1127C20.014 16.0483 18.8737 15.4744 17.3034 15.1509C16.6873 15.0194 16.0612 14.922 15.4307 14.8599L14.9697 14.8209C13.5259 14.6935 12.0738 14.6935 10.63 14.8209ZM14.8435 16.263L14.8562 16.264C15.5799 16.3149 16.2991 16.4165 17.0087 16.568C18.1751 16.8083 18.9667 17.2067 19.2171 17.7348C19.4057 18.133 19.4057 18.5958 19.2169 18.9944C18.9829 19.4879 18.272 19.8691 17.2445 20.1021L17.0195 20.1498C16.296 20.3112 15.5791 20.4152 14.8575 20.4647C13.7379 20.5599 12.6249 20.5771 11.5148 20.5171L11.1212 20.5103C11.0119 20.5048 10.9198 20.4942 10.8345 20.4771C10.1587 20.4261 9.55065 20.3454 8.96026 20.2283L8.60774 20.1537C7.4377 19.9244 6.63914 19.5243 6.38023 18.989C6.28963 18.797 6.24124 18.5803 6.24152 18.3609C6.24071 18.1428 6.28847 17.931 6.38117 17.7379C6.63292 17.2324 7.47918 16.7971 8.58604 16.569C9.30072 16.4159 10.0196 16.3144 10.7429 16.264C12.116 16.143 13.4837 16.143 14.8435 16.263Z" fill="#11425E"/>
</svg>
