<svg width="24" height="24" viewBox="0 0 24 24" fill="none" xmlns="http://www.w3.org/2000/svg">
<mask id="mask0_563_1659" style="mask-type:alpha" maskUnits="userSpaceOnUse" x="3" y="3" width="18" height="18">
<path d="M10.2 3H3V21H21V13.8H15.6H10.2V3Z" fill="#C4C4C4"/>
</mask>
<g mask="url(#mask0_563_1659)">
<rect x="4.75" y="4.75" width="14.5" height="14.5" rx="4.25" stroke="#11425E" stroke-width="1.5" stroke-linejoin="round"/>
</g>
<path d="M13 4.75C13 4.33579 13.3358 4 13.75 4H19.25C19.6642 4 20 4.33579 20 4.75C20 5.16421 19.6642 5.5 19.25 5.5H13.75C13.3358 5.5 13 5.16421 13 4.75Z" fill="#11425E"/>
<path d="M19.25 4C19.6642 4 20 4.33579 20 4.75L20 10.25C20 10.6642 19.6642 11 19.25 11C18.8358 11 18.5 10.6642 18.5 10.25L18.5 4.75C18.5 4.33579 18.8358 4 19.25 4Z" fill="#11425E"/>
<path d="M19.2089 4.7304C19.5018 5.0233 19.5018 5.49817 19.2089 5.79106L13.1985 11.8015C12.9056 12.0944 12.4308 12.0944 12.1379 11.8015C11.845 11.5086 11.845 11.0337 12.1379 10.7408L18.1483 4.7304C18.4412 4.43751 18.916 4.43751 19.2089 4.7304Z" fill="#11425E"/>
</svg>
