<svg width="18" height="19" viewBox="0 0 18 19" fill="none" xmlns="http://www.w3.org/2000/svg">
<path fill-rule="evenodd" clip-rule="evenodd" d="M12.314 2.45225C12.2796 2.19685 12.0623 2 11.7995 2C11.5127 2 11.2802 2.23427 11.2802 2.52326V3.10176H6.7261V2.52326L6.72136 2.45225C6.68698 2.19685 6.46974 2 6.20687 2C5.92011 2 5.68765 2.23427 5.68765 2.52326V3.11476C3.55991 3.2613 2.25 4.63994 2.25 6.86434V13.178C2.25 15.5654 3.71875 17 6.07219 17H11.9277C14.284 17 15.7499 15.5894 15.7499 13.2308V6.86434C15.7567 4.63915 14.451 3.26089 12.3187 3.1147V2.52326L12.314 2.45225ZM11.2802 4.14828V4.81915L11.285 4.89015C11.3194 5.14555 11.5366 5.3424 11.7995 5.3424C12.0862 5.3424 12.3187 5.10813 12.3187 4.81915V4.16374C13.8701 4.29282 14.7165 5.22705 14.7115 6.86274V7.16576H3.28846V6.86434C3.28846 5.22969 4.13944 4.29348 5.68765 4.16385V4.81915L5.69239 4.89015C5.72677 5.14555 5.94401 5.3424 6.20687 5.3424C6.49364 5.3424 6.7261 5.10813 6.7261 4.81915V4.14828H11.2802ZM3.28846 8.21227V13.178C3.28846 14.98 4.28514 15.9535 6.07219 15.9535H11.9277C13.7209 15.9535 14.7115 15.0004 14.7115 13.2308L14.7115 8.21227H3.28846ZM12.6009 10.4137C12.6009 10.1248 12.3684 9.89048 12.0817 9.89048L12.0048 9.89526C11.7514 9.92991 11.556 10.1488 11.556 10.4137C11.556 10.7027 11.7885 10.937 12.0817 10.937L12.1521 10.9322C12.4056 10.8976 12.6009 10.6786 12.6009 10.4137ZM9.00958 9.89048C9.29634 9.89048 9.52881 10.1248 9.52881 10.4137C9.52881 10.6786 9.33347 10.8976 9.08004 10.9322L9.00958 10.937C8.71641 10.937 8.48394 10.7027 8.48394 10.4137C8.48394 10.1488 8.67928 9.92991 8.93271 9.89526L9.00958 9.89048ZM6.45032 10.4137C6.45032 10.1248 6.21785 9.89048 5.93109 9.89048L5.85422 9.89526C5.60079 9.92991 5.40545 10.1488 5.40545 10.4137C5.40545 10.7027 5.63792 10.937 5.92468 10.937L6.00155 10.9322C6.25499 10.8976 6.45032 10.6786 6.45032 10.4137ZM12.0817 12.602C12.3684 12.602 12.6009 12.8363 12.6009 13.1253C12.6009 13.3902 12.4056 13.6091 12.1521 13.6437L12.0817 13.6485C11.7885 13.6485 11.556 13.4143 11.556 13.1253C11.556 12.8604 11.7514 12.6414 12.0048 12.6068L12.0817 12.602ZM9.52881 13.1253C9.52881 12.8363 9.29634 12.602 9.00958 12.602L8.93271 12.6068C8.67928 12.6414 8.48394 12.8604 8.48394 13.1253C8.48394 13.4143 8.71641 13.6485 9.00958 13.6485L9.08004 13.6437C9.33347 13.6091 9.52881 13.3902 9.52881 13.1253ZM5.93109 12.602C6.21785 12.602 6.45032 12.8363 6.45032 13.1253C6.45032 13.3902 6.25499 13.6091 6.00155 13.6437L5.92468 13.6485C5.63792 13.6485 5.40545 13.4143 5.40545 13.1253C5.40545 12.8604 5.60079 12.6414 5.85422 12.6068L5.93109 12.602Z" fill="#11425E"/>
</svg>
