<svg width="18" height="19" viewBox="0 0 18 19" fill="none" xmlns="http://www.w3.org/2000/svg">
<path fill-rule="evenodd" clip-rule="evenodd" d="M9.0216 2.00004C5.56483 1.98829 2.74132 4.73851 2.62847 8.18102L2.625 8.39469C2.68246 10.0821 3.25655 11.6905 4.26771 13.0157L4.50519 13.3256C5.47035 14.5528 6.61734 15.63 7.9052 16.5178L8.21529 16.7266L8.26053 16.7621C8.70195 17.0793 9.29794 17.0793 9.73936 16.7621L9.77702 16.7311C10.7989 16.0684 11.7413 15.2897 12.5854 14.4105C14.3015 12.5939 15.3358 10.5584 15.3748 8.49124L15.3749 8.41448C15.3866 4.94894 12.6449 2.11675 9.21297 2.00352L9.0216 2.00004ZM9.01774 3.13809C11.8516 3.14777 14.1525 5.41205 14.2379 8.23182L14.2404 8.48045C14.2075 10.2136 13.3001 11.9993 11.765 13.6243C10.9822 14.4397 10.1046 15.1644 9.15267 15.7808L9.08923 15.8285C9.03797 15.873 8.96193 15.873 8.91066 15.8285L8.849 15.782C7.43098 14.8562 6.18643 13.6873 5.17227 12.3288C4.35539 11.2581 3.87132 9.97803 3.77388 8.64265L3.75957 8.37489C3.76919 5.53415 6.02649 3.22622 8.83759 3.14052L9.01774 3.13809ZM8.99995 6.05097C7.65865 6.05097 6.57132 7.14166 6.57132 8.48709C6.57132 9.83253 7.65865 10.9232 8.99995 10.9232C10.3412 10.9232 11.4286 9.83253 11.4286 8.48709C11.4286 7.14166 10.3412 6.05097 8.99995 6.05097ZM8.99995 7.18904C9.71464 7.18904 10.294 7.7702 10.294 8.48709C10.294 9.20399 9.71464 9.78515 8.99995 9.78515C8.28525 9.78515 7.70588 9.20399 7.70588 8.48709C7.70588 7.7702 8.28525 7.18904 8.99995 7.18904Z" fill="#11425E"/>
</svg>
