<svg width="25" height="24" viewBox="0 0 25 24" fill="none" xmlns="http://www.w3.org/2000/svg">
<path fill-rule="evenodd" clip-rule="evenodd" d="M16.7588 2H8.04122C4.65589 2 2.40002 4.4199 2.40002 7.89317V16.1068C2.40002 19.5833 4.64994 22 8.04122 22H16.7588C20.1501 22 22.4 19.5833 22.4 16.1068V7.89317C22.4 4.41665 20.1501 2 16.7588 2ZM8.04122 3.39535H16.7588C19.3563 3.39535 21.0047 5.16587 21.0047 7.89317V16.1068C21.0047 18.8341 19.3563 20.6047 16.7588 20.6047H8.04122C5.44374 20.6047 3.79537 18.8341 3.79537 16.1068V7.89317C3.79537 5.16949 5.44925 3.39535 8.04122 3.39535ZM13.1268 7.17893C13.0806 6.8384 12.7887 6.57593 12.4355 6.57593C12.0501 6.57593 11.7378 6.88829 11.7378 7.2736V16.7087L11.7442 16.8034C11.7904 17.1439 12.0823 17.4064 12.4355 17.4064C12.8208 17.4064 13.1331 17.094 13.1331 16.7087V7.2736L13.1268 7.17893ZM8.78568 10.2325C8.73948 9.89197 8.44758 9.6295 8.09438 9.6295C7.70906 9.6295 7.3967 9.94186 7.3967 10.3272V16.7087L7.40307 16.8034C7.44927 17.1439 7.74117 17.4064 8.09438 17.4064C8.47969 17.4064 8.79205 17.094 8.79205 16.7087V10.3272L8.78568 10.2325ZM16.7057 13.0017C17.0589 13.0017 17.3508 13.2642 17.397 13.6047L17.4033 13.6994V16.7087C17.4033 17.094 17.091 17.4064 16.7057 17.4064C16.3525 17.4064 16.0606 17.1439 16.0144 16.8034L16.008 16.7087V13.6994C16.008 13.3141 16.3204 13.0017 16.7057 13.0017Z" fill="#11425E"/>
</svg>
