<svg width="511" height="87" viewBox="0 0 511 87" fill="none" xmlns="http://www.w3.org/2000/svg">
<path d="M0.451453 67V19.6428H12.2908V24.7986H14.0094C14.8368 23.2073 16.2054 21.8388 18.1149 20.693C20.0245 19.4836 22.5388 18.879 25.6577 18.879C29.0313 18.879 31.7365 19.5473 33.7734 20.884C35.8102 22.157 37.3697 23.8438 38.4518 25.9443H40.1704C41.2525 23.9075 42.7802 22.2207 44.7534 20.884C46.7266 19.5473 49.5273 18.879 53.1555 18.879C56.0835 18.879 58.725 19.5155 61.0802 20.7885C63.4989 21.9979 65.4085 23.8756 66.8089 26.4217C68.2729 28.9042 69.0049 32.055 69.0049 35.8741V67H56.9746V36.7334C56.9746 34.1237 56.3062 32.1823 54.9695 30.9092C53.6328 29.5725 51.7551 28.9042 49.3363 28.9042C46.5993 28.9042 44.4669 29.7953 42.9393 31.5776C41.4753 33.2962 40.7433 35.7786 40.7433 39.0249V67H28.713V36.7334C28.713 34.1237 28.0447 32.1823 26.708 30.9092C25.3713 29.5725 23.4935 28.9042 21.0748 28.9042C18.3377 28.9042 16.2054 29.7953 14.6777 31.5776C13.2137 33.2962 12.4817 35.7786 12.4817 39.0249V67H0.451453ZM80.1475 86.0957V75.593H105.927C107.709 75.593 108.6 74.6383 108.6 72.7287V60.7939H106.881C106.372 61.876 105.577 62.9581 104.494 64.0402C103.412 65.1223 101.948 66.0134 100.102 66.7136C98.2565 67.4137 95.9014 67.7638 93.037 67.7638C89.3452 67.7638 86.0989 66.9363 83.2982 65.2814C80.5612 63.5628 78.4289 61.2077 76.9012 58.216C75.3736 55.2243 74.6097 51.7871 74.6097 47.9043V19.6428H86.64V46.9496C86.64 50.5141 87.4993 53.1875 89.2179 54.9697C91.0002 56.752 93.5144 57.6431 96.7607 57.6431C100.453 57.6431 103.317 56.4337 105.354 54.015C107.391 51.5325 108.409 48.0953 108.409 43.7033V19.6428H120.439V75.4021C120.439 78.6483 119.485 81.2263 117.575 83.1358C115.665 85.109 113.119 86.0957 109.937 86.0957H80.1475ZM156.073 68.3367C151.808 68.3367 148.53 67.6047 146.239 66.1407C143.947 64.6767 142.26 63.0536 141.178 61.2713H139.46V67H127.62V0.165211H139.651V25.085H141.369C142.069 23.9393 142.992 22.8572 144.138 21.8388C145.347 20.8203 146.907 19.9929 148.816 19.3563C150.79 18.6562 153.208 18.3061 156.073 18.3061C159.892 18.3061 163.425 19.2609 166.671 21.1704C169.917 23.0163 172.527 25.7534 174.5 29.3816C176.473 33.0097 177.46 37.4017 177.46 42.5576V44.0852C177.46 49.241 176.473 53.633 174.5 57.2612C172.527 60.8894 169.917 63.6583 166.671 65.5678C163.425 67.4137 159.892 68.3367 156.073 68.3367ZM152.445 57.8341C156.136 57.8341 159.224 56.6565 161.706 54.3014C164.188 51.8826 165.43 48.3817 165.43 43.7988V42.844C165.43 38.261 164.188 34.792 161.706 32.4369C159.287 30.0181 156.2 28.8087 152.445 28.8087C148.753 28.8087 145.666 30.0181 143.183 32.4369C140.701 34.792 139.46 38.261 139.46 42.844V43.7988C139.46 48.3817 140.701 51.8826 143.183 54.3014C145.666 56.6565 148.753 57.8341 152.445 57.8341ZM182.3 67V0.165211H194.331V37.1153H196.049L211.708 19.6428H227.366L205.501 42.5576L228.13 67H212.662L196.049 48.1908H194.331V67H182.3Z" fill="white"/>
<path d="M249.265 67V20.3111H256.617V26.1353H257.953C258.844 24.4803 260.308 22.9527 262.345 21.5523C264.382 20.152 267.247 19.4518 270.938 19.4518C274.567 19.4518 277.495 20.2475 279.722 21.8388C282.014 23.4301 283.669 25.3715 284.687 27.663H286.024C287.106 25.3715 288.729 23.4301 290.893 21.8388C293.121 20.2475 296.208 19.4518 300.155 19.4518C303.274 19.4518 306.011 20.0883 308.366 21.3614C310.721 22.6344 312.567 24.4803 313.904 26.8991C315.304 29.2543 316.004 32.0868 316.004 35.3967V67H308.461V36.065C308.461 32.9461 307.538 30.4955 305.692 28.7132C303.91 26.8673 301.396 25.9443 298.15 25.9443C294.712 25.9443 291.88 27.0583 289.652 29.2861C287.488 31.5139 286.406 34.7283 286.406 38.9294V67H278.863V36.065C278.863 32.9461 277.94 30.4955 276.094 28.7132C274.312 26.8673 271.798 25.9443 268.551 25.9443C265.114 25.9443 262.282 27.0583 260.054 29.2861C257.89 31.5139 256.808 34.7283 256.808 38.9294V67H249.265ZM346.782 68.3367C342.071 68.3367 337.902 67.3501 334.274 65.3769C330.71 63.4037 327.909 60.6348 325.872 57.0703C323.899 53.4421 322.912 49.1774 322.912 44.2762V43.035C322.912 38.1974 323.899 33.9645 325.872 30.3363C327.909 26.7082 330.71 23.9075 334.274 21.9343C337.902 19.961 342.071 18.9744 346.782 18.9744C351.492 18.9744 355.629 19.961 359.194 21.9343C362.822 23.9075 365.623 26.7082 367.596 30.3363C369.633 33.9645 370.651 38.1974 370.651 43.035V44.2762C370.651 49.1774 369.633 53.4421 367.596 57.0703C365.623 60.6348 362.822 63.4037 359.194 65.3769C355.629 67.3501 351.492 68.3367 346.782 68.3367ZM346.782 61.5577C351.747 61.5577 355.693 59.9983 358.621 56.8793C361.613 53.6967 363.108 49.432 363.108 44.0852V43.2259C363.108 37.8791 361.613 33.6463 358.621 30.5273C355.693 27.3447 351.747 25.7534 346.782 25.7534C341.88 25.7534 337.934 27.3447 334.942 30.5273C331.951 33.6463 330.455 37.8791 330.455 43.2259V44.0852C330.455 49.432 331.951 53.6967 334.942 56.8793C337.934 59.9983 341.88 61.5577 346.782 61.5577ZM403.893 68.3367C399.056 68.3367 395.268 67.4137 392.531 65.5678C389.858 63.7219 387.917 61.6214 386.707 59.2663H385.371V67H378.019V0.165211H385.562V27.663H386.898C387.662 26.199 388.744 24.8304 390.144 23.5574C391.545 22.2207 393.359 21.1386 395.587 20.3111C397.878 19.42 400.647 18.9744 403.893 18.9744C407.967 18.9744 411.659 19.961 414.969 21.9343C418.342 23.8438 421.016 26.6127 422.989 30.2409C424.962 33.8054 425.949 38.0701 425.949 43.035V44.2762C425.949 49.241 424.93 53.5376 422.894 57.1657C420.92 60.7939 418.247 63.5628 414.873 65.4723C411.563 67.3819 407.903 68.3367 403.893 68.3367ZM401.888 61.6532C406.726 61.6532 410.64 60.1256 413.632 57.0703C416.687 53.9513 418.215 49.623 418.215 44.0852V43.2259C418.215 37.6882 416.687 33.3916 413.632 30.3363C410.64 27.2174 406.726 25.6579 401.888 25.6579C397.114 25.6579 393.168 27.2174 390.049 30.3363C386.994 33.3916 385.466 37.6882 385.466 43.2259V44.0852C385.466 49.623 386.994 53.9513 390.049 57.0703C393.168 60.1256 397.114 61.6532 401.888 61.6532ZM433.258 67V20.3111H440.801V67H433.258ZM437.077 13.0548C435.422 13.0548 434.022 12.5137 432.876 11.4316C431.794 10.3496 431.253 8.98104 431.253 7.32609C431.253 5.60748 431.794 4.20713 432.876 3.12504C434.022 2.04295 435.422 1.50191 437.077 1.50191C438.732 1.50191 440.101 2.04295 441.183 3.12504C442.265 4.20713 442.806 5.60748 442.806 7.32609C442.806 8.98104 442.265 10.3496 441.183 11.4316C440.101 12.5137 438.732 13.0548 437.077 13.0548ZM450.455 67V0.165211H457.998V67H450.455ZM489.04 68.3367C484.33 68.3367 480.192 67.3501 476.628 65.3769C473.063 63.34 470.294 60.5075 468.321 56.8793C466.348 53.2511 465.361 49.0501 465.361 44.2762V43.1304C465.361 38.2929 466.348 34.06 468.321 30.4318C470.294 26.8036 473.031 24.003 476.532 22.0297C480.033 19.9929 484.043 18.9744 488.562 18.9744C492.954 18.9744 496.837 19.9292 500.211 21.8388C503.584 23.6847 506.226 26.3581 508.136 29.859C510.045 33.3598 511 37.4654 511 42.1756V45.6129H472.904C473.095 50.6414 474.718 54.5878 477.773 57.4522C480.829 60.2529 484.648 61.6532 489.231 61.6532C493.241 61.6532 496.328 60.7303 498.492 58.8843C500.656 57.0384 502.311 54.8424 503.457 52.2963L509.95 55.4471C508.995 57.4203 507.658 59.3936 505.94 61.3668C504.285 63.34 502.089 64.995 499.352 66.3317C496.678 67.6683 493.241 68.3367 489.04 68.3367ZM473 39.4068H503.362C503.107 35.0784 501.611 31.7049 498.874 29.2861C496.201 26.8673 492.764 25.6579 488.562 25.6579C484.298 25.6579 480.797 26.8673 478.06 29.2861C475.323 31.7049 473.636 35.0784 473 39.4068Z" fill="#AFE3F9"/>
</svg>
