<svg width="25" height="24" viewBox="0 0 25 24" fill="none" xmlns="http://www.w3.org/2000/svg">
<path fill-rule="evenodd" clip-rule="evenodd" d="M17.0186 2.603C16.9728 2.26247 16.6831 2 16.3326 2C15.9503 2 15.6403 2.31236 15.6403 2.69767V3.46902H9.56814V2.69767L9.56182 2.603C9.51598 2.26247 9.22633 2 8.87584 2C8.49349 2 8.18353 2.31236 8.18353 2.69767V3.48634C5.34655 3.68173 3.60001 5.51992 3.60001 8.48579V16.9041C3.60001 20.0872 5.55835 22 8.69626 22H16.5036C19.6453 22 21.5999 20.1193 21.5999 16.9744V8.48579C21.609 5.51886 19.868 3.68119 17.0249 3.48626V2.69767L17.0186 2.603ZM15.6403 4.86437V5.75887L15.6466 5.85354C15.6925 6.19407 15.9821 6.45654 16.3326 6.45654C16.715 6.45654 17.0249 6.14418 17.0249 5.75887V4.88499C19.0935 5.0571 20.222 6.30274 20.2153 8.48365V8.88768H4.98462V8.48579C4.98462 6.30626 6.11926 5.05798 8.18353 4.88513V5.75887L8.18985 5.85354C8.2357 6.19407 8.52535 6.45654 8.87584 6.45654C9.25819 6.45654 9.56814 6.14418 9.56814 5.75887V4.86437H15.6403ZM4.98462 10.283V16.9041C4.98462 19.3067 6.31352 20.6047 8.69626 20.6047H16.5036C18.8946 20.6047 20.2153 19.3338 20.2153 16.9744L20.2153 10.283H4.98462ZM17.4012 13.2183C17.4012 12.833 17.0912 12.5206 16.7089 12.5206L16.6064 12.527C16.2685 12.5732 16.008 12.8651 16.008 13.2183C16.008 13.6036 16.318 13.916 16.7089 13.916L16.8028 13.9096C17.1407 13.8634 17.4012 13.5715 17.4012 13.2183ZM12.6128 12.5206C12.9951 12.5206 13.3051 12.833 13.3051 13.2183C13.3051 13.5715 13.0446 13.8634 12.7067 13.9096L12.6128 13.916C12.2219 13.916 11.9119 13.6036 11.9119 13.2183C11.9119 12.8651 12.1724 12.5732 12.5103 12.527L12.6128 12.5206ZM9.20044 13.2183C9.20044 12.833 8.89048 12.5206 8.50813 12.5206L8.40564 12.527C8.06772 12.5732 7.80727 12.8651 7.80727 13.2183C7.80727 13.6036 8.11723 13.916 8.49958 13.916L8.60207 13.9096C8.93999 13.8634 9.20044 13.5715 9.20044 13.2183ZM16.7089 16.136C17.0912 16.136 17.4012 16.4484 17.4012 16.8337C17.4012 17.1869 17.1407 17.4788 16.8028 17.525L16.7089 17.5314C16.318 17.5314 16.008 17.219 16.008 16.8337C16.008 16.4805 16.2685 16.1886 16.6064 16.1424L16.7089 16.136ZM13.3051 16.8337C13.3051 16.4484 12.9951 16.136 12.6128 16.136L12.5103 16.1424C12.1724 16.1886 11.9119 16.4805 11.9119 16.8337C11.9119 17.219 12.2219 17.5314 12.6128 17.5314L12.7067 17.525C13.0446 17.4788 13.3051 17.1869 13.3051 16.8337ZM8.50813 16.136C8.89048 16.136 9.20044 16.4484 9.20044 16.8337C9.20044 17.1869 8.93999 17.4788 8.60207 17.525L8.49958 17.5314C8.11723 17.5314 7.80727 17.219 7.80727 16.8337C7.80727 16.4805 8.06772 16.1886 8.40564 16.1424L8.50813 16.136Z" fill="#11425E"/>
</svg>
